<svg xmlns="http://www.w3.org/2000/svg" width="115.676" height="115.676" viewBox="0 0 115.676 115.676">
  <g id="Icons" transform="translate(0 4)">
    <g id="Outlined" transform="translate(0 -4)">
      <g id="File" transform="translate(0 0)">
        <g id="Outlined-_-File-_-cloud_upload" data-name="Outlined-/-File-/-cloud_upload" transform="translate(0)">
          <g id="Grupo_21" data-name="Grupo 21">
            <path id="Path" d="M0,0H115.676V115.676H0Z" fill="none" fill-rule="evenodd"/>
            <path id="_-Icon-Color" data-name="🔹-Icon-Color" d="M93.263,33.112a36.112,36.112,0,0,0-67.477-9.64,28.907,28.907,0,0,0,3.133,57.645H91.576a24.03,24.03,0,0,0,1.687-48.005ZM91.576,71.477H28.919A19.265,19.265,0,0,1,26.8,33.063l5.157-.53,2.41-4.579a26.447,26.447,0,0,1,49.451,7.037l1.446,7.23,7.374.53a14.38,14.38,0,0,1-1.06,28.726Zm-53.018-24.1H50.849V61.838H64.826V47.378H77.117L57.838,28.1Z" transform="translate(0 15.279)" fill="#29dbd1" fill-rule="evenodd"/>
          </g>
        </g>
      </g>
    </g>
  </g>
</svg>
